<svg width="260" height="260" viewBox="0 0 260 260" fill="none" xmlns="http://www.w3.org/2000/svg">
<path d="M52.3254 180.332C48.5761 180.332 45.7148 179.296 43.7414 177.224C41.7681 175.152 40.7814 172.241 40.7814 168.492V86.352C40.7814 82.504 41.7681 79.5933 43.7414 77.62C45.8134 75.6467 48.7241 74.66 52.4734 74.66H88.4374C100.08 74.66 109.059 77.62 115.373 83.54C121.688 89.3613 124.845 97.5013 124.845 107.96C124.845 118.419 121.688 126.608 115.373 132.528C109.059 138.448 100.08 141.408 88.4374 141.408H63.7214V168.492C63.7214 172.241 62.7348 175.152 60.7614 177.224C58.8868 179.296 56.0748 180.332 52.3254 180.332ZM63.7214 123.648H84.5894C90.5094 123.648 94.9988 122.316 98.0574 119.652C101.215 116.988 102.793 113.091 102.793 107.96C102.793 102.829 101.215 98.9813 98.0574 96.416C94.9988 93.8507 90.5094 92.568 84.5894 92.568H63.7214V123.648Z" fill="#F9F9F9"/>
<path d="M189.679 180.628C178.431 180.628 168.811 178.408 160.819 173.968C152.827 169.528 146.66 163.312 142.319 155.32C138.076 147.229 135.955 137.708 135.955 126.756C135.955 118.567 137.139 111.216 139.507 104.704C141.973 98.0933 145.525 92.4693 150.163 87.832C154.8 83.096 160.424 79.4453 167.035 76.88C173.744 74.3147 181.292 73.032 189.679 73.032C194.612 73.032 199.595 73.6733 204.627 74.956C209.757 76.14 214.197 77.8667 217.947 80.136C220.413 81.5173 222.091 83.244 222.979 85.316C223.867 87.388 224.113 89.46 223.719 91.532C223.423 93.604 222.584 95.38 221.203 96.86C219.92 98.34 218.292 99.2773 216.319 99.672C214.345 100.067 212.125 99.6227 209.659 98.34C206.699 96.564 203.591 95.2813 200.335 94.492C197.079 93.7027 193.773 93.308 190.419 93.308C183.808 93.308 178.233 94.64 173.695 97.304C169.255 99.8693 165.9 103.619 163.631 108.552C161.361 113.485 160.227 119.553 160.227 126.756C160.227 133.86 161.361 139.928 163.631 144.96C165.9 149.992 169.255 153.84 173.695 156.504C178.233 159.069 183.808 160.352 190.419 160.352C193.576 160.352 196.783 159.957 200.039 159.168C203.393 158.379 206.6 157.145 209.659 155.468C212.224 154.185 214.493 153.741 216.467 154.136C218.539 154.432 220.216 155.32 221.499 156.8C222.88 158.181 223.719 159.859 224.015 161.832C224.409 163.805 224.212 165.779 223.423 167.752C222.633 169.725 221.153 171.403 218.983 172.784C215.332 175.251 210.843 177.175 205.515 178.556C200.187 179.937 194.908 180.628 189.679 180.628Z" fill="#FF0000"/>
</svg>
