<svg width="1033" height="36" viewBox="0 0 1033 36" fill="none" xmlns="http://www.w3.org/2000/svg">
<path d="M2.336 35C1.632 35 1.088 34.824 0.704 34.472C0.352 34.088 0.176 33.544 0.176 32.84V3.32C0.176 2.616 0.352 2.088 0.704 1.736C1.088 1.352 1.632 1.16 2.336 1.16H11.6C17.072 1.16 21.296 2.6 24.272 5.48C27.248 8.36 28.736 12.552 28.736 18.056C28.736 20.808 28.352 23.24 27.584 25.352C26.848 27.432 25.744 29.192 24.272 30.632C22.8 32.072 21.008 33.16 18.896 33.896C16.784 34.632 14.352 35 11.6 35H2.336ZM4.112 31.64H11.312C13.552 31.64 15.488 31.352 17.12 30.776C18.784 30.2 20.16 29.352 21.248 28.232C22.368 27.112 23.2 25.704 23.744 24.008C24.288 22.28 24.56 20.296 24.56 18.056C24.56 13.544 23.456 10.168 21.248 7.928C19.04 5.656 15.728 4.52 11.312 4.52H4.112V31.64ZM52.361 35C51.657 35 51.113 34.824 50.729 34.472C50.377 34.088 50.201 33.544 50.201 32.84V3.32C50.201 2.616 50.377 2.088 50.729 1.736C51.113 1.352 51.657 1.16 52.361 1.16H70.217C70.761 1.16 71.177 1.304 71.465 1.592C71.753 1.88 71.897 2.28 71.897 2.792C71.897 3.336 71.753 3.752 71.465 4.04C71.177 4.328 70.761 4.472 70.217 4.472H54.041V16.184H69.209C69.753 16.184 70.169 16.328 70.457 16.616C70.745 16.872 70.889 17.272 70.889 17.816C70.889 18.36 70.745 18.776 70.457 19.064C70.169 19.352 69.753 19.496 69.209 19.496H54.041V31.688H70.217C70.761 31.688 71.177 31.832 71.465 32.12C71.753 32.408 71.897 32.808 71.897 33.32C71.897 33.864 71.753 34.28 71.465 34.568C71.177 34.856 70.761 35 70.217 35H52.361ZM103.061 35.432C101.557 35.432 100.085 35.304 98.6446 35.048C97.2046 34.792 95.8606 34.424 94.6126 33.944C93.3966 33.464 92.2926 32.856 91.3006 32.12C90.9166 31.832 90.6446 31.512 90.4846 31.16C90.3566 30.776 90.3246 30.408 90.3886 30.056C90.4846 29.672 90.6446 29.352 90.8686 29.096C91.1246 28.84 91.4286 28.696 91.7806 28.664C92.1326 28.632 92.5166 28.744 92.9326 29C94.3726 30.024 95.9086 30.776 97.5406 31.256C99.1726 31.704 101.013 31.928 103.061 31.928C105.941 31.928 108.069 31.4 109.445 30.344C110.853 29.256 111.557 27.832 111.557 26.072C111.557 24.632 111.045 23.512 110.021 22.712C109.029 21.88 107.349 21.224 104.981 20.744L99.9886 19.736C96.9806 19.096 94.7246 18.056 93.2206 16.616C91.7486 15.144 91.0126 13.192 91.0126 10.76C91.0126 9.256 91.3166 7.896 91.9246 6.68C92.5326 5.432 93.3806 4.376 94.4686 3.512C95.5566 2.616 96.8526 1.928 98.3566 1.448C99.8606 0.967998 101.525 0.727998 103.349 0.727998C105.365 0.727998 107.237 1.016 108.965 1.592C110.725 2.136 112.309 2.968 113.717 4.088C114.069 4.376 114.309 4.712 114.437 5.096C114.565 5.448 114.581 5.8 114.485 6.152C114.389 6.472 114.213 6.744 113.957 6.968C113.733 7.192 113.429 7.32 113.045 7.352C112.693 7.384 112.293 7.256 111.845 6.968C110.565 6.008 109.237 5.32 107.861 4.904C106.485 4.456 104.965 4.232 103.301 4.232C101.605 4.232 100.133 4.488 98.8846 5C97.6686 5.512 96.7086 6.264 96.0046 7.256C95.3326 8.216 94.9966 9.336 94.9966 10.616C94.9966 12.152 95.4606 13.368 96.3886 14.264C97.3486 15.16 98.9006 15.816 101.045 16.232L106.037 17.288C109.269 17.96 111.653 18.984 113.189 20.36C114.757 21.704 115.541 23.544 115.541 25.88C115.541 27.288 115.253 28.584 114.677 29.768C114.101 30.952 113.269 31.976 112.181 32.84C111.093 33.672 109.781 34.312 108.245 34.76C106.709 35.208 104.981 35.432 103.061 35.432ZM138.208 35C137.504 35 136.96 34.824 136.576 34.472C136.224 34.088 136.048 33.544 136.048 32.84V3.32C136.048 2.616 136.224 2.088 136.576 1.736C136.96 1.352 137.504 1.16 138.208 1.16H156.064C156.608 1.16 157.024 1.304 157.312 1.592C157.6 1.88 157.744 2.28 157.744 2.792C157.744 3.336 157.6 3.752 157.312 4.04C157.024 4.328 156.608 4.472 156.064 4.472H139.888V16.184H155.056C155.6 16.184 156.016 16.328 156.304 16.616C156.592 16.872 156.736 17.272 156.736 17.816C156.736 18.36 156.592 18.776 156.304 19.064C156.016 19.352 155.6 19.496 155.056 19.496H139.888V31.688H156.064C156.608 31.688 157.024 31.832 157.312 32.12C157.6 32.408 157.744 32.808 157.744 33.32C157.744 33.864 157.6 34.28 157.312 34.568C157.024 34.856 156.608 35 156.064 35H138.208ZM180.304 35.336C179.696 35.336 179.232 35.176 178.912 34.856C178.592 34.504 178.432 34.008 178.432 33.368V2.84C178.432 2.2 178.592 1.704 178.912 1.352C179.232 0.999999 179.648 0.823999 180.16 0.823999C180.672 0.823999 181.04 0.919999 181.264 1.112C181.52 1.272 181.808 1.576 182.128 2.024L203.056 29.912H201.904V2.744C201.904 2.136 202.064 1.672 202.384 1.352C202.704 0.999999 203.168 0.823999 203.776 0.823999C204.352 0.823999 204.784 0.999999 205.072 1.352C205.392 1.672 205.552 2.136 205.552 2.744V33.416C205.552 34.024 205.408 34.504 205.12 34.856C204.864 35.176 204.48 35.336 203.968 35.336C203.488 35.336 203.104 35.24 202.816 35.048C202.528 34.856 202.224 34.552 201.904 34.136L181.024 6.248H182.128V33.368C182.128 34.008 181.968 34.504 181.648 34.856C181.328 35.176 180.88 35.336 180.304 35.336ZM240.748 35.336C240.14 35.336 239.644 35.192 239.26 34.904C238.876 34.616 238.572 34.184 238.348 33.608L225.148 3.416C224.924 2.872 224.86 2.424 224.956 2.072C225.052 1.688 225.26 1.384 225.58 1.16C225.932 0.935999 226.332 0.823999 226.78 0.823999C227.388 0.823999 227.836 0.967999 228.124 1.256C228.444 1.512 228.7 1.896 228.892 2.408L241.564 31.832H240.028L252.652 2.36C252.876 1.88 253.148 1.512 253.468 1.256C253.788 0.967999 254.236 0.823999 254.812 0.823999C255.26 0.823999 255.628 0.935999 255.916 1.16C256.236 1.384 256.428 1.688 256.492 2.072C256.588 2.456 256.524 2.904 256.3 3.416L243.1 33.608C242.876 34.184 242.572 34.616 242.188 34.904C241.836 35.192 241.356 35.336 240.748 35.336ZM289.315 35.432C286.179 35.432 283.443 34.728 281.107 33.32C278.803 31.88 277.011 29.864 275.731 27.272C274.483 24.68 273.859 21.608 273.859 18.056C273.859 15.368 274.211 12.968 274.915 10.856C275.651 8.712 276.691 6.904 278.035 5.432C279.379 3.928 280.995 2.776 282.883 1.976C284.803 1.144 286.947 0.727998 289.315 0.727998C292.515 0.727998 295.267 1.432 297.571 2.84C299.907 4.248 301.699 6.248 302.947 8.84C304.227 11.4 304.867 14.456 304.867 18.008C304.867 20.696 304.499 23.112 303.763 25.256C303.027 27.4 301.987 29.224 300.643 30.728C299.299 32.232 297.667 33.4 295.747 34.232C293.859 35.032 291.715 35.432 289.315 35.432ZM289.315 31.928C291.747 31.928 293.795 31.384 295.459 30.296C297.155 29.208 298.451 27.624 299.347 25.544C300.243 23.464 300.691 20.968 300.691 18.056C300.691 13.672 299.699 10.28 297.715 7.88C295.763 5.448 292.963 4.232 289.315 4.232C286.947 4.232 284.915 4.776 283.219 5.864C281.555 6.952 280.275 8.536 279.379 10.616C278.483 12.664 278.035 15.144 278.035 18.056C278.035 22.408 279.027 25.816 281.011 28.28C282.995 30.712 285.763 31.928 289.315 31.928ZM328.32 35C327.68 35 327.184 34.824 326.832 34.472C326.48 34.088 326.304 33.576 326.304 32.936V2.984C326.304 2.312 326.464 1.8 326.784 1.448C327.136 1.096 327.632 0.919998 328.272 0.919998C328.912 0.919998 329.392 1.096 329.712 1.448C330.064 1.8 330.24 2.312 330.24 2.984V31.544H345.984C346.56 31.544 347.008 31.704 347.328 32.024C347.648 32.312 347.808 32.728 347.808 33.272C347.808 33.816 347.648 34.248 347.328 34.568C347.008 34.856 346.56 35 345.984 35H328.32ZM374.557 35.336C373.949 35.336 373.453 35.192 373.069 34.904C372.685 34.616 372.381 34.184 372.157 33.608L358.957 3.416C358.733 2.872 358.669 2.424 358.765 2.072C358.861 1.688 359.069 1.384 359.389 1.16C359.741 0.935999 360.141 0.823999 360.589 0.823999C361.197 0.823999 361.645 0.967999 361.933 1.256C362.253 1.512 362.509 1.896 362.701 2.408L375.373 31.832H373.837L386.461 2.36C386.685 1.88 386.957 1.512 387.277 1.256C387.597 0.967999 388.045 0.823999 388.621 0.823999C389.069 0.823999 389.437 0.935999 389.725 1.16C390.045 1.384 390.237 1.688 390.301 2.072C390.397 2.456 390.333 2.904 390.109 3.416L376.909 33.608C376.685 34.184 376.381 34.616 375.997 34.904C375.645 35.192 375.165 35.336 374.557 35.336ZM411.827 35C411.123 35 410.579 34.824 410.195 34.472C409.843 34.088 409.667 33.544 409.667 32.84V3.32C409.667 2.616 409.843 2.088 410.195 1.736C410.579 1.352 411.123 1.16 411.827 1.16H429.683C430.227 1.16 430.643 1.304 430.931 1.592C431.219 1.88 431.363 2.28 431.363 2.792C431.363 3.336 431.219 3.752 430.931 4.04C430.643 4.328 430.227 4.472 429.683 4.472H413.507V16.184H428.675C429.219 16.184 429.635 16.328 429.923 16.616C430.211 16.872 430.355 17.272 430.355 17.816C430.355 18.36 430.211 18.776 429.923 19.064C429.635 19.352 429.219 19.496 428.675 19.496H413.507V31.688H429.683C430.227 31.688 430.643 31.832 430.931 32.12C431.219 32.408 431.363 32.808 431.363 33.32C431.363 33.864 431.219 34.28 430.931 34.568C430.643 34.856 430.227 35 429.683 35H411.827ZM454.211 35C453.507 35 452.963 34.824 452.579 34.472C452.227 34.088 452.051 33.544 452.051 32.84V3.32C452.051 2.616 452.227 2.088 452.579 1.736C452.963 1.352 453.507 1.16 454.211 1.16H463.475C468.947 1.16 473.171 2.6 476.147 5.48C479.123 8.36 480.611 12.552 480.611 18.056C480.611 20.808 480.227 23.24 479.459 25.352C478.723 27.432 477.619 29.192 476.147 30.632C474.675 32.072 472.883 33.16 470.771 33.896C468.659 34.632 466.227 35 463.475 35H454.211ZM455.987 31.64H463.187C465.427 31.64 467.363 31.352 468.995 30.776C470.659 30.2 472.035 29.352 473.123 28.232C474.243 27.112 475.075 25.704 475.619 24.008C476.163 22.28 476.435 20.296 476.435 18.056C476.435 13.544 475.331 10.168 473.123 7.928C470.915 5.656 467.603 4.52 463.187 4.52H455.987V31.64ZM516.284 35.432C513.148 35.432 510.412 34.728 508.076 33.32C505.772 31.88 503.98 29.864 502.7 27.272C501.452 24.68 500.828 21.608 500.828 18.056C500.828 15.368 501.18 12.968 501.884 10.856C502.62 8.712 503.66 6.904 505.004 5.432C506.348 3.928 507.964 2.776 509.852 1.976C511.772 1.144 513.916 0.727998 516.284 0.727998C519.484 0.727998 522.236 1.432 524.54 2.84C526.876 4.248 528.668 6.248 529.916 8.84C531.196 11.4 531.836 14.456 531.836 18.008C531.836 20.696 531.468 23.112 530.732 25.256C529.996 27.4 528.956 29.224 527.612 30.728C526.268 32.232 524.636 33.4 522.716 34.232C520.828 35.032 518.684 35.432 516.284 35.432ZM516.284 31.928C518.716 31.928 520.764 31.384 522.428 30.296C524.124 29.208 525.42 27.624 526.316 25.544C527.212 23.464 527.66 20.968 527.66 18.056C527.66 13.672 526.668 10.28 524.684 7.88C522.732 5.448 519.932 4.232 516.284 4.232C513.916 4.232 511.884 4.776 510.188 5.864C508.524 6.952 507.244 8.536 506.348 10.616C505.452 12.664 505.004 15.144 505.004 18.056C505.004 22.408 505.996 25.816 507.98 28.28C509.964 30.712 512.732 31.928 516.284 31.928ZM555.241 35.336C554.601 35.336 554.105 35.16 553.753 34.808C553.433 34.424 553.273 33.912 553.273 33.272V3.176C553.273 2.504 553.449 2.008 553.801 1.688C554.153 1.336 554.649 1.16 555.289 1.16H566.665C570.281 1.16 573.065 2.008 575.017 3.704C576.969 5.4 577.945 7.816 577.945 10.952C577.945 12.936 577.497 14.664 576.601 16.136C575.737 17.576 574.457 18.68 572.761 19.448C571.065 20.184 569.033 20.552 566.665 20.552L567.145 19.928H568.105C569.353 19.928 570.441 20.248 571.369 20.888C572.297 21.528 573.145 22.552 573.913 23.96L578.521 32.552C578.777 33 578.889 33.448 578.857 33.896C578.857 34.312 578.713 34.664 578.425 34.952C578.137 35.208 577.721 35.336 577.177 35.336C576.633 35.336 576.185 35.208 575.833 34.952C575.481 34.696 575.177 34.328 574.921 33.848L569.689 24.152C568.953 22.776 568.105 21.864 567.145 21.416C566.185 20.936 564.921 20.696 563.353 20.696H557.209V33.272C557.209 33.912 557.049 34.424 556.729 34.808C556.409 35.16 555.913 35.336 555.241 35.336ZM557.209 17.576H566.089C568.713 17.576 570.697 17.032 572.041 15.944C573.385 14.824 574.057 13.16 574.057 10.952C574.057 8.808 573.385 7.192 572.041 6.104C570.697 4.984 568.713 4.424 566.089 4.424H557.209V17.576ZM628.669 35.336C627.997 35.336 627.469 35.16 627.085 34.808C626.733 34.424 626.557 33.88 626.557 33.176V3.32C626.557 2.616 626.733 2.088 627.085 1.736C627.469 1.352 628.013 1.16 628.717 1.16H646.141C646.685 1.16 647.101 1.304 647.389 1.592C647.677 1.88 647.821 2.28 647.821 2.792C647.821 3.336 647.677 3.752 647.389 4.04C647.101 4.328 646.685 4.472 646.141 4.472H630.493V16.28H645.133C645.677 16.28 646.093 16.424 646.381 16.712C646.701 17 646.861 17.4 646.861 17.912C646.861 18.456 646.701 18.872 646.381 19.16C646.093 19.448 645.677 19.592 645.133 19.592H630.493V33.176C630.493 34.616 629.885 35.336 628.669 35.336ZM680.598 35.432C678.358 35.432 676.39 35.144 674.694 34.568C673.03 33.96 671.622 33.08 670.47 31.928C669.318 30.744 668.454 29.288 667.878 27.56C667.302 25.832 667.014 23.848 667.014 21.608V2.84C667.014 2.168 667.174 1.672 667.494 1.352C667.846 0.999999 668.342 0.823999 668.982 0.823999C669.622 0.823999 670.102 0.999999 670.422 1.352C670.774 1.672 670.95 2.168 670.95 2.84V21.416C670.95 24.936 671.766 27.576 673.398 29.336C675.03 31.064 677.43 31.928 680.598 31.928C683.766 31.928 686.15 31.064 687.75 29.336C689.35 27.576 690.15 24.936 690.15 21.416V2.84C690.15 2.168 690.326 1.672 690.678 1.352C691.03 0.999999 691.526 0.823999 692.166 0.823999C692.774 0.823999 693.238 0.999999 693.558 1.352C693.91 1.672 694.086 2.168 694.086 2.84V21.608C694.086 24.584 693.574 27.112 692.55 29.192C691.558 31.272 690.054 32.84 688.038 33.896C686.022 34.92 683.542 35.432 680.598 35.432ZM718.592 35C717.952 35 717.456 34.824 717.104 34.472C716.752 34.088 716.576 33.576 716.576 32.936V2.984C716.576 2.312 716.736 1.8 717.056 1.448C717.408 1.096 717.904 0.919998 718.544 0.919998C719.184 0.919998 719.664 1.096 719.984 1.448C720.336 1.8 720.512 2.312 720.512 2.984V31.544H736.256C736.832 31.544 737.28 31.704 737.6 32.024C737.92 32.312 738.08 32.728 738.08 33.272C738.08 33.816 737.92 34.248 737.6 34.568C737.28 34.856 736.832 35 736.256 35H718.592ZM759.054 35C758.414 35 757.918 34.824 757.566 34.472C757.214 34.088 757.038 33.576 757.038 32.936V2.984C757.038 2.312 757.198 1.8 757.518 1.448C757.87 1.096 758.366 0.919998 759.006 0.919998C759.646 0.919998 760.126 1.096 760.446 1.448C760.798 1.8 760.974 2.312 760.974 2.984V31.544H776.718C777.294 31.544 777.742 31.704 778.062 32.024C778.382 32.312 778.542 32.728 778.542 33.272C778.542 33.816 778.382 34.248 778.062 34.568C777.742 34.856 777.294 35 776.718 35H759.054ZM796.297 23.816C795.817 23.816 795.417 23.672 795.097 23.384C794.777 23.064 794.617 22.68 794.617 22.232C794.617 21.752 794.777 21.368 795.097 21.08C795.417 20.76 795.817 20.6 796.297 20.6H807.097C807.545 20.6 807.929 20.76 808.249 21.08C808.569 21.368 808.729 21.752 808.729 22.232C808.729 22.68 808.569 23.064 808.249 23.384C807.929 23.672 807.545 23.816 807.097 23.816H796.297ZM840.423 35.432C838.919 35.432 837.447 35.304 836.007 35.048C834.567 34.792 833.223 34.424 831.975 33.944C830.759 33.464 829.655 32.856 828.663 32.12C828.279 31.832 828.007 31.512 827.847 31.16C827.719 30.776 827.687 30.408 827.751 30.056C827.847 29.672 828.007 29.352 828.231 29.096C828.487 28.84 828.791 28.696 829.143 28.664C829.495 28.632 829.879 28.744 830.295 29C831.735 30.024 833.271 30.776 834.903 31.256C836.535 31.704 838.375 31.928 840.423 31.928C843.303 31.928 845.431 31.4 846.807 30.344C848.215 29.256 848.919 27.832 848.919 26.072C848.919 24.632 848.407 23.512 847.383 22.712C846.391 21.88 844.711 21.224 842.343 20.744L837.351 19.736C834.343 19.096 832.087 18.056 830.583 16.616C829.111 15.144 828.375 13.192 828.375 10.76C828.375 9.256 828.679 7.896 829.287 6.68C829.895 5.432 830.743 4.376 831.831 3.512C832.919 2.616 834.215 1.928 835.719 1.448C837.223 0.967998 838.887 0.727998 840.711 0.727998C842.727 0.727998 844.599 1.016 846.327 1.592C848.087 2.136 849.671 2.968 851.079 4.088C851.431 4.376 851.671 4.712 851.799 5.096C851.927 5.448 851.943 5.8 851.847 6.152C851.751 6.472 851.575 6.744 851.319 6.968C851.095 7.192 850.791 7.32 850.407 7.352C850.055 7.384 849.655 7.256 849.207 6.968C847.927 6.008 846.599 5.32 845.223 4.904C843.847 4.456 842.327 4.232 840.663 4.232C838.967 4.232 837.495 4.488 836.247 5C835.031 5.512 834.071 6.264 833.367 7.256C832.695 8.216 832.359 9.336 832.359 10.616C832.359 12.152 832.823 13.368 833.751 14.264C834.711 15.16 836.263 15.816 838.407 16.232L843.399 17.288C846.631 17.96 849.015 18.984 850.551 20.36C852.119 21.704 852.903 23.544 852.903 25.88C852.903 27.288 852.615 28.584 852.039 29.768C851.463 30.952 850.631 31.976 849.543 32.84C848.455 33.672 847.143 34.312 845.607 34.76C844.071 35.208 842.343 35.432 840.423 35.432ZM882.979 35.336C882.371 35.336 881.891 35.16 881.539 34.808C881.187 34.424 881.011 33.912 881.011 33.272V4.568H870.211C869.635 4.568 869.187 4.408 868.867 4.088C868.547 3.768 868.387 3.352 868.387 2.84C868.387 2.296 868.547 1.88 868.867 1.592C869.187 1.304 869.635 1.16 870.211 1.16H895.795C896.371 1.16 896.819 1.304 897.139 1.592C897.459 1.88 897.619 2.296 897.619 2.84C897.619 3.384 897.459 3.816 897.139 4.136C896.819 4.424 896.371 4.568 895.795 4.568H884.995V33.272C884.995 33.912 884.819 34.424 884.467 34.808C884.147 35.16 883.651 35.336 882.979 35.336ZM911.606 35.336C911.094 35.336 910.678 35.224 910.358 35C910.07 34.744 909.894 34.424 909.83 34.04C909.798 33.624 909.894 33.16 910.118 32.648L923.318 2.6C923.606 1.96 923.942 1.512 924.326 1.256C924.742 0.967999 925.19 0.823999 925.67 0.823999C926.15 0.823999 926.582 0.967999 926.966 1.256C927.382 1.512 927.718 1.96 927.974 2.6L941.222 32.648C941.478 33.16 941.574 33.624 941.51 34.04C941.478 34.456 941.318 34.776 941.03 35C940.742 35.224 940.342 35.336 939.83 35.336C939.254 35.336 938.79 35.192 938.438 34.904C938.086 34.584 937.798 34.136 937.574 33.56L934.022 25.352L935.942 26.36H915.302L917.27 25.352L913.766 33.56C913.478 34.168 913.174 34.616 912.854 34.904C912.534 35.192 912.118 35.336 911.606 35.336ZM925.622 5.768L917.894 23.96L916.742 23.048H934.502L933.446 23.96L925.718 5.768H925.622ZM975.772 35.432C972.444 35.432 969.596 34.728 967.228 33.32C964.86 31.912 963.036 29.912 961.756 27.32C960.508 24.728 959.884 21.64 959.884 18.056C959.884 15.368 960.236 12.968 960.94 10.856C961.676 8.712 962.716 6.904 964.06 5.432C965.436 3.928 967.116 2.776 969.1 1.976C971.084 1.144 973.308 0.727998 975.772 0.727998C977.756 0.727998 979.644 1.016 981.436 1.592C983.228 2.136 984.78 2.952 986.092 4.04C986.508 4.36 986.78 4.728 986.908 5.144C987.068 5.528 987.084 5.912 986.956 6.296C986.86 6.648 986.668 6.952 986.38 7.208C986.124 7.432 985.804 7.544 985.42 7.544C985.036 7.544 984.604 7.384 984.124 7.064C982.972 6.136 981.708 5.448 980.332 5C978.956 4.552 977.468 4.328 975.868 4.328C973.34 4.328 971.196 4.872 969.436 5.96C967.676 7.016 966.348 8.568 965.452 10.616C964.556 12.664 964.108 15.144 964.108 18.056C964.108 20.968 964.556 23.464 965.452 25.544C966.348 27.592 967.676 29.16 969.436 30.248C971.196 31.304 973.34 31.832 975.868 31.832C977.436 31.832 978.924 31.608 980.332 31.16C981.74 30.68 983.036 29.976 984.22 29.048C984.7 28.728 985.132 28.584 985.516 28.616C985.9 28.616 986.22 28.728 986.476 28.952C986.732 29.176 986.908 29.464 987.004 29.816C987.132 30.168 987.132 30.536 987.004 30.92C986.908 31.304 986.668 31.64 986.284 31.928C984.94 33.08 983.356 33.96 981.532 34.568C979.74 35.144 977.82 35.432 975.772 35.432ZM1009.8 35.336C1009.16 35.336 1008.66 35.16 1008.31 34.808C1007.99 34.424 1007.83 33.912 1007.83 33.272V2.84C1007.83 2.168 1007.99 1.672 1008.31 1.352C1008.66 0.999999 1009.16 0.823999 1009.8 0.823999C1010.44 0.823999 1010.92 0.999999 1011.24 1.352C1011.59 1.672 1011.77 2.168 1011.77 2.84V16.52H1011.86L1027.51 1.928C1027.89 1.544 1028.28 1.272 1028.66 1.112C1029.05 0.919999 1029.46 0.823999 1029.91 0.823999C1030.52 0.823999 1030.95 0.967999 1031.21 1.256C1031.49 1.544 1031.61 1.896 1031.54 2.312C1031.48 2.728 1031.25 3.128 1030.87 3.512L1014.5 18.68L1014.55 16.568L1031.64 32.36C1032.12 32.808 1032.37 33.272 1032.41 33.752C1032.44 34.2 1032.29 34.584 1031.97 34.904C1031.69 35.192 1031.24 35.336 1030.63 35.336C1030.15 35.336 1029.73 35.224 1029.38 35C1029.06 34.808 1028.69 34.504 1028.28 34.088L1011.86 19.064H1011.77V33.272C1011.77 33.912 1011.61 34.424 1011.29 34.808C1010.97 35.16 1010.47 35.336 1009.8 35.336Z" fill="#F9F9F9"/>
</svg>
